# xmcd
#
# Track frame offsets: 
#        150
#        13410
#        27726
#        40043
#        52179
#        68187
#        88747
#        103398
#        125015
#        137590
#
# Disc length: 2053 seconds
#
# Revision: 0
# Processed by: cddbd v1.5.2PL0 Copyright (c) Steve Scherf et al.
# Submitted via: ExactAudioCopy v1.0b4
#
DISCID=9808030a
DTITLE=Various Artrists - Под НебомПарижа
DYEAR=2006
DGENRE=Chanson
TTITLE0=Ives Montand - Sous le Ciel de Paris
TTITLE1=Mervey Roy - Emmanuelle
TTITLE2=Pierre Barouh - Un Hommer et Femme
TTITLE3=Fanny Ardant - A Quol Sert De Vivre Ubre
TTITLE4=Ives Montand - C'est si bon
TTITLE5=Guy Morchand - Destinee
TTITLE6=Gean Gabin - Maitenand, Je Sais
TTITLE7=Richard Sanderson - Reality
TTITLE8=Sophie Kremen - Next Year If Eerything's All Right
TTITLE9=Astrud Gilberto - Agromenti
EXTD=
EXTT0=
EXTT1=
EXTT2=
EXTT3=
EXTT4=
EXTT5=
EXTT6=
EXTT7=
EXTT8=
EXTT9=
PLAYORDER=
